<?xml version="1.0" encoding="UTF-8"?>
<svg id="Layer_1" data-name="Layer 1" xmlns="http://www.w3.org/2000/svg" viewBox="0 0 212.08 60.16">
  <defs>
    <style>
      .cls-1 {
        fill: #e4032e;
      }

      .cls-2 {
        fill: #fff;
      }

      .cls-3 {
        fill: #575756;
      }

      .cls-4 {
        fill: #003863;
      }
    </style>
  </defs>
  <g>
    <path class="cls-2" d="M60.16,30.08c0,16.61-13.47,30.08-30.08,30.08S0,46.69,0,30.08,13.47,0,30.08,0s30.08,13.47,30.08,30.08"/>
    <path class="cls-4" d="M44.19,27.98c-4.78-3.25-10.9-1.93-14.12,2.96-2.68,4.08-6.73,4.59-8.29,4.59-5.12,0-8.61-3.6-9.65-7.32h0s-.02-.07-.03-.11c-.01-.04-.02-.08-.03-.12-.41-1.56-.51-2.29-.51-3.94,0-8.89,9.13-18.8,22.27-18.8s21.17,10.25,23.16,15.95c-.04-.11-.07-.2-.1-.3C53.06,9.74,42.5,1.73,30.05,1.73,14.41,1.73,1.71,14.42,1.71,30.08c0,14,10.09,25.97,24.1,25.97,11.16,0,18.67-6.26,22.11-14.89,1.89-4.72.55-10.27-3.73-13.18"/>
    <path class="cls-1" d="M57.16,21.73c-1.66-5.56-9.42-16.5-23.33-16.5-13.14,0-22.27,9.91-22.27,18.8,0,1.65.1,2.39.51,3.94-.17-.68-.26-1.36-.26-2.02,0-9.27,9.27-15.68,18.81-15.68,12.91,0,23.38,10.46,23.38,23.37,0,10.12-5.82,18.88-14.28,23.09h0c10.91-3.94,18.69-14.39,18.69-26.66,0-2.9-.39-5.46-1.24-8.34"/>
  </g>
  <g>
    <path class="cls-3" d="M79.56,18.07v-2.26h3.56v2.26h4.95v2.78h-14v-2.78h5.5ZM87.47,27.19c0,.78-.17,1.51-.49,2.2-.33.68-.77,1.28-1.33,1.79-.56.52-1.2.92-1.93,1.22-.73.3-1.52.45-2.36.45s-1.63-.15-2.36-.45c-.73-.3-1.38-.71-1.93-1.22-.56-.51-1-1.11-1.33-1.79-.33-.68-.49-1.41-.49-2.2s.16-1.52.49-2.21c.33-.69.77-1.29,1.33-1.81.56-.52,1.2-.92,1.93-1.22.73-.3,1.52-.45,2.36-.45s1.63.15,2.36.45c.73.3,1.37.71,1.93,1.22.56.51,1,1.12,1.33,1.81.33.69.49,1.43.49,2.21ZM84.35,27.15c0-.8-.29-1.5-.88-2.09-.59-.59-1.29-.88-2.12-.88s-1.53.29-2.1.88c-.58.59-.87,1.28-.87,2.09s.29,1.49.87,2.07c.58.58,1.28.87,2.1.87s1.53-.29,2.12-.87c.59-.58.88-1.27.88-2.07ZM96.16,38.07c0,.82-.18,1.6-.53,2.33-.35.73-.81,1.38-1.39,1.93-.6.56-1.29,1-2.07,1.33-.78.33-1.62.5-2.5.5s-1.73-.17-2.52-.5c-.79-.33-1.49-.77-2.09-1.33-.58-.56-1.04-1.2-1.39-1.93-.35-.73-.53-1.51-.53-2.33s.17-1.61.53-2.35c.35-.74.81-1.39,1.39-1.95.6-.56,1.29-1,2.09-1.33.79-.33,1.63-.5,2.52-.5s1.72.16,2.5.5c.78.33,1.47.77,2.07,1.33.58.56,1.04,1.21,1.39,1.95.35.74.53,1.53.53,2.35ZM92.88,38.04c0-.87-.32-1.62-.96-2.26-.64-.64-1.4-.96-2.29-.96s-1.64.32-2.27.96c-.63.64-.94,1.39-.94,2.26s.31,1.61.94,2.24c.63.63,1.39.94,2.27.94s1.65-.31,2.29-.94c.64-.63.96-1.38.96-2.24ZM92.82,31.11h-3.09v-14.71h3.09v5.84h2.75v-5.87h3.21v15.12h-3.21v-6.21h-2.75v5.84Z"/>
    <path class="cls-3" d="M102.68,20.01v-2.88h15.46v2.88h-6.58l6.86,8.38-2.35,1.92-5.5-6.86-5.47,7.33-2.44-1.98,6.83-8.78h-6.8ZM124.07,37.57c0,.91-.19,1.76-.56,2.55-.37.79-.87,1.49-1.48,2.09-.64.6-1.39,1.07-2.24,1.42-.85.35-1.76.53-2.7.53s-1.85-.18-2.72-.53c-.87-.35-1.62-.83-2.26-1.42-.62-.6-1.11-1.29-1.48-2.09-.37-.79-.56-1.64-.56-2.55s.19-1.76.56-2.57c.37-.8.87-1.5,1.48-2.1.64-.6,1.39-1.07,2.26-1.42.87-.35,1.77-.53,2.72-.53s1.85.17,2.7.53,1.6.82,2.24,1.42c.62.6,1.11,1.3,1.48,2.1.37.8.56,1.66.56,2.57ZM120.79,37.54c0-1.01-.37-1.88-1.11-2.61-.74-.73-1.62-1.1-2.63-1.1s-1.88.37-2.61,1.1c-.73.73-1.1,1.6-1.1,2.61s.37,1.88,1.1,2.6c.73.72,1.6,1.08,2.61,1.08s1.89-.36,2.63-1.08c.74-.72,1.11-1.59,1.11-2.6ZM123.02,30.65v-5.84h-5.01v-2.88h5.01v-5.56h3.34v14.28h-3.34Z"/>
    <path class="cls-3" d="M145.59,23.91c0,1.01-.2,1.96-.6,2.84-.4.89-.95,1.67-1.65,2.35-.7.66-1.51,1.19-2.43,1.58-.92.39-1.9.59-2.95.59s-2.04-.2-2.95-.59c-.92-.39-1.73-.92-2.43-1.58-.7-.68-1.25-1.46-1.65-2.35-.4-.89-.6-1.84-.6-2.84s.2-1.96.6-2.84c.4-.89.95-1.67,1.65-2.35.7-.66,1.51-1.19,2.43-1.58.92-.39,1.9-.59,2.95-.59s2.03.2,2.95.59,1.73.92,2.43,1.58c.7.68,1.25,1.46,1.65,2.35.4.89.6,1.83.6,2.84ZM135.35,33.77v6.03h18.11v2.97h-21.45v-9h3.34ZM142.37,23.94c0-.6-.12-1.17-.36-1.7-.24-.54-.55-1.01-.94-1.42-.41-.39-.88-.7-1.41-.94-.53-.24-1.09-.36-1.68-.36s-1.16.12-1.7.36c-.54.24-1.01.55-1.42.94-.39.41-.71.89-.94,1.42-.24.54-.36,1.1-.36,1.7s.12,1.16.36,1.68c.24.53.55,1,.94,1.41.41.39.89.71,1.42.94.54.24,1.1.36,1.7.36s1.16-.12,1.68-.36.99-.55,1.41-.94c.39-.41.71-.88.94-1.41.24-.53.36-1.09.36-1.68ZM152.79,33.62h-3.34v-17.25h3.34v5.87h3.86v3.31h-3.86v8.07Z"/>
    <path class="cls-3" d="M159.06,20.01v-2.88h15.46v2.88h-6.55l6.83,10.08-2.54,1.7-5.32-8.1-5.32,8.32-2.6-1.73,6.8-10.26h-6.77ZM160.92,42.76v-9h3.34v6.03h18.73v2.97h-22.07ZM179.4,33.62v-7.95h-5.01v-2.97h5.01v-6.34h3.34v17.25h-3.34Z"/>
    <path class="cls-3" d="M187.35,33.4h24.73v2.97h-10.7v6.92h-3.37v-6.92h-10.66v-2.97ZM192.63,20.23h14.16v-3.4h3.31v12.95h-20.77v-12.95h3.31v3.4ZM206.79,23.14h-14.16v3.71h14.16v-3.71Z"/>
  </g>
</svg>